<svg width="60" height="60" viewBox="0 0 245 245" fill="none" xmlns="http://www.w3.org/2000/svg">
<g clip-path="url(#clip0)">
<path fill-rule="evenodd" clip-rule="evenodd" d="M122.5 69C109.549 68.9869 97.0161 73.5738 87.148 81.9387C77.2799 90.3036 70.7213 101.9 68.6477 114.649C66.574 127.398 69.1208 140.467 75.8317 151.514C82.5425 162.561 92.9787 170.863 105.27 174.933C108.013 175.434 108.984 173.732 108.984 172.297C108.984 170.863 108.984 167.593 108.984 163.055C93.7612 166.359 90.5494 155.749 90.5494 155.749C89.5395 152.46 87.3941 149.635 84.4938 147.774C79.5758 144.438 84.8953 144.438 84.8953 144.438C86.6193 144.681 88.2653 145.312 89.7086 146.283C91.1519 147.254 92.3547 148.54 93.2259 150.043C93.9661 151.382 94.9641 152.561 96.1627 153.514C97.3612 154.467 98.7366 155.175 100.21 155.597C101.683 156.018 103.226 156.145 104.749 155.971C106.271 155.797 107.745 155.324 109.084 154.581C109.294 151.836 110.481 149.256 112.43 147.307C100.319 145.939 87.6053 141.268 87.6053 120.615C87.5221 115.22 89.5225 110 93.1924 106.035C91.5579 101.344 91.749 96.212 93.7277 91.6547C93.7277 91.6547 98.3112 90.1867 108.716 97.2267C117.651 94.7802 127.081 94.7802 136.016 97.2267C146.421 90.1867 150.971 91.6547 150.971 91.6547C152.977 96.1637 153.216 101.259 151.64 105.935C155.31 109.9 157.311 115.12 157.227 120.515C157.227 141.402 144.481 145.973 132.336 147.207C133.638 148.513 134.644 150.082 135.285 151.809C135.925 153.536 136.186 155.38 136.05 157.217C136.05 164.49 136.05 170.362 136.05 172.131C136.05 173.899 137.02 175.267 139.797 174.733C151.948 170.556 162.228 162.23 168.82 151.226C175.413 140.222 177.893 127.249 175.824 114.598C173.754 101.947 167.268 90.4328 157.51 82.0891C147.753 73.7455 135.353 69.1094 122.5 69V69Z" fill="white"/>
</g>
<path fill-rule="evenodd" clip-rule="evenodd" d="M122.5 237C185.737 237 237 185.737 237 122.5C237 59.2634 185.737 8 122.5 8C59.2634 8 8 59.2634 8 122.5C8 185.737 59.2634 237 122.5 237ZM122.5 245C190.155 245 245 190.155 245 122.5C245 54.8451 190.155 0 122.5 0C54.8451 0 0 54.8451 0 122.5C0 190.155 54.8451 245 122.5 245Z" fill="white"/>
<defs>
<clipPath id="clip0">
<rect x="68" y="69" width="109" height="106" fill="white"/>
</clipPath>
</defs>
</svg>
