<svg width="60" height="60" viewBox="0 0 245 245" fill="none" xmlns="http://www.w3.org/2000/svg">
<path d="M157.898 172.373C157.794 172.789 157.382 172.996 156.663 172.996H142.921C142.095 172.996 141.38 172.633 140.76 171.905L118.069 142.799L111.74 148.869V171.443C111.74 172.481 111.224 173 110.196 173H99.5444C98.5142 173 98 172.481 98 171.443V68.5538C98 67.5185 98.5142 67 99.5444 67H110.198C111.226 67 111.742 67.5202 111.742 68.5538V131.906L138.911 104.2C139.632 103.475 140.352 103.11 141.072 103.11H155.277C155.893 103.11 156.303 103.372 156.511 103.887C156.719 104.51 156.667 104.976 156.355 105.289L127.64 133.302L157.588 170.816C157.998 171.231 158.102 171.75 157.9 172.373" fill="white"/>
<path fill-rule="evenodd" clip-rule="evenodd" d="M122.5 236.515C185.469 236.515 236.515 185.469 236.515 122.5C236.515 59.5312 185.469 8.48485 122.5 8.48485C59.5312 8.48485 8.48485 59.5312 8.48485 122.5C8.48485 185.469 59.5312 236.515 122.5 236.515ZM122.5 245C190.155 245 245 190.155 245 122.5C245 54.8451 190.155 0 122.5 0C54.8451 0 0 54.8451 0 122.5C0 190.155 54.8451 245 122.5 245Z" fill="white"/>
</svg>