<svg width="60" height="60" viewBox="0 0 245 245" fill="none" xmlns="http://www.w3.org/2000/svg">
<path fill-rule="evenodd" clip-rule="evenodd" d="M122.5 237C185.737 237 237 185.737 237 122.5C237 59.2634 185.737 8 122.5 8C59.2634 8 8 59.2634 8 122.5C8 185.737 59.2634 237 122.5 237ZM122.5 245C190.155 245 245 190.155 245 122.5C245 54.8451 190.155 0 122.5 0C54.8451 0 0 54.8451 0 122.5C0 190.155 54.8451 245 122.5 245Z" fill="white"/>
<path fill-rule="evenodd" clip-rule="evenodd" d="M83.1915 77C78.1152 77 74 81.1161 74 86.1936V162.806C74 167.884 78.1152 172 83.1915 172H160.809C165.885 172 170 167.884 170 162.806V86.1936C170 81.1161 165.885 77 160.809 77H83.1915ZM94.9362 105.602C99.7305 105.602 103.617 101.715 103.617 96.9194C103.617 92.124 99.7305 88.2366 94.9362 88.2366C90.1419 88.2366 86.2553 92.124 86.2553 96.9194C86.2553 101.715 90.1419 105.602 94.9362 105.602ZM102.596 112.753V160.763H87.2766V112.753H102.596ZM111.787 112.242H126.085V119.392C127.957 116.668 131.702 111.22 140.894 111.22C150.085 111.22 155.702 114.796 157.745 123.478C158.166 125.271 158.936 131.31 158.766 131.14V160.763H143.957V133.183C143.957 128.075 140.894 124.5 135.787 124.5C130.681 124.5 127.106 128.075 127.106 133.183V160.763H111.787V112.242Z" fill="white"/>
</svg>
