<svg width="60" height="60" viewBox="0 0 245 245" fill="none" xmlns="http://www.w3.org/2000/svg">
<path fill-rule="evenodd" clip-rule="evenodd" d="M122.5 236.515C185.469 236.515 236.515 185.469 236.515 122.5C236.515 59.5312 185.469 8.48485 122.5 8.48485C59.5312 8.48485 8.48485 59.5312 8.48485 122.5C8.48485 185.469 59.5312 236.515 122.5 236.515ZM122.5 245C190.155 245 245 190.155 245 122.5C245 54.8451 190.155 0 122.5 0C54.8451 0 0 54.8451 0 122.5C0 190.155 54.8451 245 122.5 245Z" fill="white"/>
<path d="M121.197 141.615V107.295H130.7C135.37 107.295 141.398 107.892 145.091 111.53C148.784 115.169 150.467 118.916 150.467 123.695C150.467 128.474 149.11 133.252 145.091 137.162C141.072 141.072 134.501 141.615 130.7 141.615H121.197Z" fill="white"/>
<path fill-rule="evenodd" clip-rule="evenodd" d="M122.5 178C153.152 178 178 153.152 178 122.5C178 91.8482 153.152 67 122.5 67C91.8482 67 67 91.8482 67 122.5C67 153.152 91.8482 178 122.5 178ZM113.974 100.995V147.698H132.275C140.149 147.698 146.883 144.657 150.63 140.366C154.377 136.076 157.038 131.732 157.038 123.695C157.038 115.658 153.182 110.879 150.63 108.109C148.078 105.34 141.398 100.995 132.275 100.995H113.974ZM105.231 91.546C105.231 94.0053 103.237 95.999 100.778 95.999C98.3185 95.999 96.3249 94.0053 96.3249 91.546C96.3249 89.0866 98.3185 87.093 100.778 87.093C103.237 87.093 105.231 89.0866 105.231 91.546ZM104.253 101.212H97.5196V147.698H104.253V101.212Z" fill="white"/>
</svg>
